<svg version="1.2" xmlns="http://www.w3.org/2000/svg" viewBox="0 0 256 256" width="48" height="48">
	<title>youtube</title>
	<style>
		.s0 { fill: #242938 } 
		.s1 { fill: #ff0033 } 
		.s2 { fill: #ffffff } 
	</style>
	<g>
		<g>
			<path class="s0" d="m60 0h136c33.1 0 60 26.9 60 60v136c0 33.1-26.9 60-60 60h-136c-33.1 0-60-26.9-60-60v-136c0-33.1 26.9-60 60-60z"/>
			<path class="s1" d="m225.7 78.8c-2.4-8.8-9.3-15.7-18.1-18-15.9-4.3-79.7-4.3-79.7-4.3 0 0-63.8 0-79.7 4.3-8.8 2.3-15.7 9.2-18.1 18-4.2 15.9-4.2 49.1-4.2 49.1 0 0 0 33.2 4.2 49.1 2.4 8.8 9.3 15.7 18.1 18.1 15.9 4.3 79.7 4.3 79.7 4.3 0 0 63.8 0 79.7-4.3 8.8-2.4 15.7-9.3 18.1-18.1 4.3-15.9 4.3-49.1 4.3-49.1 0 0-0.1-33.2-4.3-49.1z"/>
			<path class="s2" d="m107.5 158.5l53-30.6-53-30.6z"/>
		</g>
	</g>
</svg>